<svg width="45" height="45" viewBox="0 0 45 45" fill="none" xmlns="http://www.w3.org/2000/svg">
<rect width="45" height="45" rx="5" fill="#FDF6B2"/>
<path d="M26.9 15.9C26.9 13.8254 26.9 12.7892 26.2554 12.1446C25.6108 11.5 24.5746 11.5 22.5 11.5C20.4254 11.5 19.3892 11.5 18.7446 12.1446C18.1 12.7892 18.1 13.8254 18.1 15.9M11.5 24.7C11.5 20.5519 11.5 18.4773 12.7892 17.1892C14.0784 15.9011 16.1519 15.9 20.3 15.9H24.7C28.8481 15.9 30.9227 15.9 32.2108 17.1892C33.4989 18.4784 33.5 20.5519 33.5 24.7C33.5 28.8481 33.5 30.9227 32.2108 32.2108C30.9216 33.4989 28.8481 33.5 24.7 33.5H20.3C16.1519 33.5 14.0773 33.5 12.7892 32.2108C11.5011 30.9216 11.5 28.8481 11.5 24.7Z" stroke="#723B13" stroke-width="1.5"/>
<path d="M28 19.2016C28 19.4933 27.8841 19.7731 27.6778 19.9794C27.4715 20.1857 27.1917 20.3016 26.9 20.3016C26.6083 20.3016 26.3285 20.1857 26.1222 19.9794C25.9159 19.7731 25.8 19.4933 25.8 19.2016C25.8 18.9098 25.9159 18.63 26.1222 18.4237C26.3285 18.2175 26.6083 18.1016 26.9 18.1016C27.1917 18.1016 27.4715 18.2175 27.6778 18.4237C27.8841 18.63 28 18.9098 28 19.2016ZM19.2 19.2016C19.2 19.4933 19.0841 19.7731 18.8778 19.9794C18.6715 20.1857 18.3917 20.3016 18.1 20.3016C17.8083 20.3016 17.5285 20.1857 17.3222 19.9794C17.1159 19.7731 17 19.4933 17 19.2016C17 18.9098 17.1159 18.63 17.3222 18.4237C17.5285 18.2175 17.8083 18.1016 18.1 18.1016C18.3917 18.1016 18.6715 18.2175 18.8778 18.4237C19.0841 18.63 19.2 18.9098 19.2 19.2016Z" fill="#723B13"/>
</svg>
