<svg width="45" height="45" viewBox="0 0 45 45" fill="none" xmlns="http://www.w3.org/2000/svg">
<rect width="45" height="45" rx="5" fill="#FCD9BD"/>
<path d="M21.3924 25.6728C22.5004 24.915 23.3416 23.8109 23.7916 22.5239C24.2416 21.2368 24.2765 19.8352 23.8912 18.5262C23.5059 17.2172 22.7208 16.0703 21.652 15.2552C20.5832 14.4401 19.2875 14 17.9564 14C16.6253 14 15.3296 14.4401 14.2608 15.2552C13.192 16.0703 12.4069 17.2172 12.0216 18.5262C11.6363 19.8352 11.6712 21.2368 12.1212 22.5239C12.5712 23.8109 13.4124 24.915 14.5204 25.6728C12.5162 26.4318 10.8045 27.8362 9.6408 29.6765C9.57964 29.7699 9.53716 29.8748 9.51583 29.9852C9.49449 30.0957 9.49473 30.2093 9.51653 30.3196C9.53833 30.4299 9.58125 30.5347 9.6428 30.6278C9.70435 30.7209 9.78331 30.8006 9.87507 30.862C9.96684 30.9235 10.0696 30.9657 10.1773 30.986C10.2851 31.0064 10.3957 31.0045 10.5028 30.9805C10.6098 30.9565 10.7111 30.911 10.8009 30.8464C10.8906 30.7818 10.967 30.6996 11.0255 30.6044C11.7762 29.4183 12.8033 28.4436 14.0137 27.7688C15.2241 27.094 16.5793 26.7406 17.9564 26.7406C19.3335 26.7406 20.6888 27.094 21.8991 27.7688C23.1095 28.4436 24.1367 29.4183 24.8873 30.6044C25.0086 30.7896 25.1959 30.9183 25.4087 30.9627C25.6216 31.0071 25.8429 30.9636 26.0248 30.8417C26.2068 30.7198 26.3347 30.5292 26.3809 30.3112C26.4272 30.0931 26.3881 29.8651 26.272 29.6765C25.1083 27.8362 23.3967 26.4318 21.3924 25.6728ZM13.4095 20.3728C13.4095 19.4489 13.6762 18.5457 14.1758 17.7775C14.6754 17.0092 15.3856 16.4105 16.2164 16.0569C17.0472 15.7033 17.9615 15.6108 18.8435 15.7911C19.7255 15.9713 20.5356 16.4162 21.1715 17.0696C21.8074 17.7229 22.2405 18.5553 22.4159 19.4614C22.5914 20.3676 22.5013 21.3069 22.1572 22.1605C21.813 23.0141 21.2303 23.7437 20.4825 24.257C19.7348 24.7703 18.8557 25.0443 17.9564 25.0443C16.7509 25.0429 15.5952 24.5503 14.7428 23.6745C13.8904 22.7987 13.4109 21.6113 13.4095 20.3728ZM35.125 30.8518C34.9414 30.9748 34.7177 31.0179 34.5032 30.9715C34.2886 30.9251 34.1008 30.7931 33.981 30.6044C33.2313 29.4176 32.2043 28.4424 30.9937 27.768C29.783 27.0935 28.4273 26.7411 27.0502 26.743C26.8309 26.743 26.6206 26.6535 26.4656 26.4942C26.3106 26.335 26.2235 26.1189 26.2235 25.8937C26.2235 25.6684 26.3106 25.4523 26.4656 25.2931C26.6206 25.1338 26.8309 25.0443 27.0502 25.0443C27.7198 25.0436 28.381 24.8911 28.9865 24.5974C29.5921 24.3038 30.127 23.8764 30.5531 23.3457C30.9793 22.8151 31.2861 22.1943 31.4516 21.5277C31.6171 20.8611 31.6373 20.1652 31.5107 19.4896C31.3842 18.8141 31.1139 18.1756 30.7193 17.6198C30.3247 17.064 29.8155 16.6046 29.228 16.2745C28.6406 15.9443 27.9894 15.7515 27.321 15.7099C26.6527 15.6682 25.9836 15.7788 25.3616 16.0336C25.2602 16.0787 25.151 16.1024 25.0406 16.1033C24.9301 16.1043 24.8205 16.0825 24.7184 16.0392C24.6163 15.9959 24.5236 15.9321 24.4459 15.8514C24.3682 15.7707 24.307 15.6748 24.266 15.5694C24.225 15.464 24.2049 15.3513 24.207 15.2378C24.2091 15.1243 24.2334 15.0124 24.2783 14.9087C24.3232 14.805 24.3879 14.7116 24.4685 14.634C24.5492 14.5564 24.6441 14.4962 24.7478 14.457C26.1712 13.8737 27.7545 13.8528 29.1921 14.3981C30.6297 14.9434 31.8198 16.0164 32.5329 17.41C33.2459 18.8037 33.4313 20.4193 33.0534 21.9451C32.6754 23.4709 31.7609 24.7989 30.4862 25.6728C32.4904 26.4318 34.2021 27.8362 35.3658 29.6765C35.4855 29.8652 35.5274 30.095 35.4823 30.3154C35.4371 30.5358 35.3086 30.7287 35.125 30.8518Z" fill="#8A2C0D"/>
</svg>
