<svg width="45" height="45" viewBox="0 0 45 45" fill="none" xmlns="http://www.w3.org/2000/svg">
<rect width="45" height="45" rx="5" fill="#C3DDFD"/>
<path d="M26.248 10.625V12.5C26.248 14.2675 26.248 15.1513 26.798 15.7C27.3455 16.25 28.2293 16.25 29.998 16.25H31.873" stroke="#1E429F" stroke-width="1.5" stroke-linecap="round" stroke-linejoin="round"/>
<path d="M17.5 21.25H27.5M17.5 25H27.5M17.5 28.75H22.7125M12.5 27.5V17.5C12.5 13.965 12.5 12.1963 13.5988 11.0988C14.6963 10 16.465 10 20 10H25.215C25.725 10 25.9813 10 26.2113 10.095C26.44 10.19 26.6213 10.37 26.9825 10.7325L31.7675 15.5175C32.13 15.88 32.31 16.06 32.405 16.29C32.5 16.5188 32.5 16.775 32.5 17.285V27.5C32.5 31.035 32.5 32.8038 31.4013 33.9013C30.3038 35 28.535 35 25 35H20C16.465 35 14.6963 35 13.5988 33.9013C12.5 32.8038 12.5 31.035 12.5 27.5Z" stroke="#1E429F" stroke-width="1.5" stroke-linecap="round" stroke-linejoin="round"/>
</svg>
