<svg width="45" height="45" viewBox="0 0 45 45" fill="none" xmlns="http://www.w3.org/2000/svg">
<rect width="45" height="45" rx="5" fill="#BDE7BE"/>
<path d="M22.5003 34.5L22.2298 34.3948C19.2092 33.2565 16.6087 31.2222 14.7768 28.5644C12.945 25.9066 11.9693 22.7523 11.9806 19.5244V14.5426L22.5003 10.5L33.02 14.5426V19.5244C33.0297 22.7511 32.0533 25.9036 30.2216 28.56C28.3898 31.2163 25.7902 33.2495 22.7708 34.3873L22.5003 34.5ZM13.4834 15.5795V19.5244C13.4755 22.3973 14.3309 25.2063 15.9387 27.5871C17.5465 29.968 19.8325 31.8109 22.5003 32.877C25.1681 31.8109 27.4541 29.968 29.0618 27.5871C30.6696 25.2063 31.5251 22.3973 31.5172 19.5244V15.5795L22.5003 12.108L13.4834 15.5795Z" fill="#03543F"/>
<path d="M18.7431 23.8526H20.2459V27.7374H18.7431V23.8526ZM20.2459 18.1043V15.7148H18.7431V18.1043C18.2417 18.2816 17.8192 18.6304 17.5501 19.089C17.281 19.5477 17.1828 20.0867 17.2727 20.6108C17.3626 21.1349 17.6349 21.6104 18.0415 21.9531C18.4481 22.2959 18.9627 22.4839 19.4945 22.4839C20.0262 22.4839 20.5409 22.2959 20.9474 21.9531C21.354 21.6104 21.6263 21.1349 21.7162 20.6108C21.8062 20.0867 21.7079 19.5477 21.4388 19.089C21.1698 18.6304 20.7472 18.2816 20.2459 18.1043ZM19.4945 20.9747C19.2952 20.9747 19.1041 20.8955 18.9631 20.7546C18.8222 20.6137 18.7431 20.4226 18.7431 20.2233C18.7431 20.024 18.8222 19.8329 18.9631 19.692C19.1041 19.5511 19.2952 19.4719 19.4945 19.4719C19.6938 19.4719 19.8849 19.5511 20.0258 19.692C20.1667 19.8329 20.2459 20.024 20.2459 20.2233C20.2459 20.4226 20.1667 20.6137 20.0258 20.7546C19.8849 20.8955 19.6938 20.9747 19.4945 20.9747ZM24.7543 15.7148H26.2571V19.5996H24.7543V15.7148ZM27.76 23.2289C27.7611 22.8154 27.6485 22.4095 27.4344 22.0557C27.2204 21.7019 26.9131 21.4138 26.5462 21.2229C26.1794 21.032 25.7671 20.9457 25.3545 20.9735C24.9419 21.0012 24.5448 21.1419 24.2069 21.3802C23.8689 21.6185 23.6029 21.9452 23.4382 22.3245C23.2734 22.7038 23.2162 23.1211 23.2727 23.5307C23.3292 23.9404 23.4973 24.3266 23.7587 24.6471C24.02 24.9676 24.3644 25.2101 24.7543 25.3479V27.7374H26.2571V25.3479C26.6956 25.1929 27.0754 24.906 27.3445 24.5267C27.6135 24.1473 27.7587 23.694 27.76 23.2289ZM25.5057 23.9803C25.3065 23.9803 25.1153 23.9012 24.9744 23.7603C24.8335 23.6193 24.7543 23.4282 24.7543 23.2289C24.7543 23.0296 24.8335 22.8385 24.9744 22.6976C25.1153 22.5567 25.3065 22.4775 25.5057 22.4775C25.705 22.4775 25.8961 22.5567 26.0371 22.6976C26.178 22.8385 26.2571 23.0296 26.2571 23.2289C26.2571 23.4282 26.178 23.6193 26.0371 23.7603C25.8961 23.9012 25.705 23.9803 25.5057 23.9803Z" fill="#03543F"/>
</svg>
