<svg width="45" height="45" viewBox="0 0 45 45" fill="none" xmlns="http://www.w3.org/2000/svg">
<rect width="45" height="45" rx="5" fill="#CDDBFE"/>
<path d="M22.5 31.5C20.8934 30.3805 19.0335 29.6671 17.0832 29.4269C15.7 29.1487 14.2908 29.0173 12.8795 29.0349C12.6989 29.0365 12.5198 29.0026 12.3525 28.9353C12.1852 28.8679 12.033 28.7684 11.9047 28.6426C11.7765 28.5167 11.6747 28.3669 11.6052 28.2019C11.5358 28.0369 11.5 27.8599 11.5 27.6811L11.525 14.8577C11.5242 14.5136 11.6558 14.1821 11.8931 13.9307C12.1303 13.6792 12.4553 13.5266 12.8022 13.5039C14.2389 13.4756 15.6744 13.6027 17.0832 13.8829C19.0314 14.1317 20.8898 14.8434 22.5 15.9572M22.5 31.5V15.9572M22.5 31.5C24.1066 30.3805 25.9665 29.6671 27.9168 29.4269C29.3 29.1487 30.7092 29.0173 32.1205 29.0349C32.3011 29.0365 32.4802 29.0026 32.6475 28.9353C32.8148 28.8679 32.967 28.7684 33.0953 28.6426C33.2235 28.5167 33.3253 28.3669 33.3948 28.2019C33.4642 28.0369 33.5 27.8599 33.5 27.6811L33.4738 14.8577C33.4746 14.5138 33.3432 14.1825 33.1062 13.9311C32.8692 13.6796 32.5444 13.5269 32.1978 13.5039C30.7611 13.4756 29.3256 13.6027 27.9168 13.8829C25.9686 14.1317 24.1102 14.8434 22.5 15.9572" stroke="#42389D" stroke-width="1.3" stroke-linecap="round" stroke-linejoin="round"/>
</svg>
