<svg width="186" height="140" viewBox="0 0 186 140" fill="none" xmlns="http://www.w3.org/2000/svg">
<path d="M92.9961 80C115.087 80 132.996 62.0914 132.996 40C132.996 17.9086 115.087 0 92.9961 0C70.9047 0 52.9961 17.9086 52.9961 40C52.9961 62.0914 70.9047 80 92.9961 80Z" fill="#F04E27"/>
<path d="M77.203 49.7889C82.6072 49.7889 86.9881 45.4079 86.9881 40.0038C86.9881 34.5997 82.6072 30.2188 77.203 30.2188C71.7989 30.2188 67.418 34.5997 67.418 40.0038C67.418 45.4079 71.7989 49.7889 77.203 49.7889Z" fill="#FFCA2D"/>
<path d="M117.989 37.1391C107.048 29.4648 96.1075 21.786 85.167 14.1071C82.9698 12.565 79.9492 14.139 79.9492 16.8229V25.0568C87.255 26.2395 92.673 32.6082 92.673 40.005C92.673 47.4018 87.2505 53.7751 79.9492 54.9533V63.1871C79.9492 65.871 82.9698 67.445 85.167 65.9029C96.1075 58.2286 107.048 50.5498 117.989 42.8709C119.977 41.4789 119.977 38.5357 117.989 37.1391Z" fill="white"/>
<path d="M120.669 120.456C120.669 121.214 120.676 122.025 120.699 122.881C120.721 123.737 120.74 124.574 120.763 125.385C120.785 126.2 120.804 126.913 120.819 127.532H120.714L102.574 100.379H100.34V131.178H102.405V111.187C102.405 110.32 102.397 109.471 102.371 108.649C102.348 107.827 102.326 107.027 102.307 106.246C102.288 105.469 102.262 104.7 102.236 103.938H102.341L120.541 131.178H122.752V100.375H120.669V120.452V120.456Z" fill="white"/>
<path d="M123.124 131.554H120.339L102.649 105.076C102.66 105.462 102.672 105.849 102.683 106.239C102.702 106.96 102.72 107.7 102.743 108.458V108.642C102.773 109.37 102.78 110.181 102.78 111.191V131.557H99.9648V100.004H102.773L120.414 126.41C120.406 126.091 120.395 125.753 120.388 125.397C120.373 124.916 120.361 124.424 120.35 123.925L120.324 122.893C120.305 122.127 120.294 121.331 120.294 120.456V100H123.128V131.554H123.124ZM120.737 130.803H122.373V100.751H121.041V120.456C121.041 121.324 121.052 122.112 121.071 122.87L121.097 123.903C121.108 124.402 121.123 124.89 121.135 125.37C121.157 126.185 121.176 126.898 121.191 127.518L121.198 127.901H120.508L102.368 100.747H100.708V130.795H102.022V111.18C102.022 110.177 102.011 109.378 101.988 108.653V108.469C101.962 107.711 101.943 106.971 101.925 106.247C101.906 105.47 101.879 104.704 101.853 103.942L101.838 103.555H102.533L120.733 130.795L120.737 130.803Z" fill="white"/>
<path d="M144.472 109.214C143.173 108.302 141.551 107.844 139.595 107.844H139.599C137.433 107.84 135.612 108.373 134.129 109.432C132.65 110.49 131.524 111.936 130.758 113.76C129.989 115.589 129.609 117.586 129.609 119.936C129.609 122.286 130.007 124.332 130.799 126.089C131.592 127.846 132.774 129.201 134.34 130.166C135.905 131.131 137.85 131.607 140.166 131.607C141.626 131.607 142.922 131.491 144.044 131.262C145.167 131.029 146.293 130.665 147.415 130.158V128.202C146.135 128.762 144.971 129.16 143.928 129.393C142.884 129.622 141.653 129.742 140.234 129.742C137.523 129.742 135.44 128.901 133.987 127.211C132.534 125.53 131.806 123.116 131.806 119.966H148.343V118.427C148.343 116.377 148.024 114.56 147.385 112.972C146.743 111.384 145.775 110.134 144.476 109.222V109.214H144.472ZM131.862 118.141C132.102 115.405 132.898 113.306 134.253 111.853C135.609 110.4 137.384 109.672 139.573 109.672C141.06 109.672 142.287 110.025 143.248 110.734C144.206 111.444 144.926 112.435 145.407 113.715C145.88 114.995 146.12 116.471 146.12 118.138H131.858H131.862V118.141Z" fill="white"/>
<path d="M140.163 131.983C137.779 131.983 135.751 131.48 134.141 130.485C132.512 129.483 131.273 128.053 130.454 126.243C129.643 124.445 129.23 122.32 129.23 119.936C129.23 117.552 129.617 115.499 130.409 113.614C131.198 111.733 132.376 110.22 133.908 109.124C135.451 108.024 137.354 107.465 139.573 107.465H139.599C141.619 107.465 143.331 107.949 144.686 108.903L144.773 108.966C146.083 109.913 147.078 111.208 147.735 112.826C148.388 114.451 148.718 116.336 148.718 118.423V120.338H132.185C132.241 123.195 132.943 125.425 134.272 126.964C135.643 128.556 137.647 129.363 140.234 129.363C141.6 129.363 142.817 129.246 143.845 129.021C144.855 128.796 146.008 128.402 147.262 127.854L147.787 127.625V130.395L147.566 130.496C146.44 131.003 145.28 131.386 144.116 131.626C142.967 131.859 141.634 131.979 140.163 131.979V131.983ZM139.573 108.219C137.516 108.219 135.755 108.73 134.347 109.736C132.932 110.75 131.84 112.154 131.104 113.903C130.349 115.694 129.985 117.665 129.985 119.932C129.985 122.2 130.376 124.227 131.141 125.931C131.896 127.602 133.037 128.92 134.535 129.843C136.029 130.763 137.921 131.229 140.166 131.229C141.589 131.229 142.869 131.116 143.969 130.891C145.002 130.677 146.034 130.346 147.04 129.911V128.766C145.944 129.22 144.927 129.55 144.011 129.753C142.926 129.99 141.657 130.114 140.234 130.114C137.418 130.114 135.222 129.22 133.702 127.452C132.193 125.706 131.43 123.187 131.43 119.962V119.587H147.968V118.423C147.968 116.433 147.656 114.643 147.036 113.107C146.425 111.594 145.49 110.389 144.258 109.526L144.176 109.462C142.959 108.636 141.417 108.216 139.596 108.216H139.577L139.573 108.219ZM132.162 118.975L130.95 117.762H131.521C131.802 115.116 132.632 113.043 133.976 111.598C135.399 110.07 137.283 109.297 139.569 109.297C141.135 109.297 142.445 109.68 143.466 110.431C144.484 111.185 145.25 112.244 145.753 113.58C146.241 114.906 146.488 116.437 146.488 118.134V118.51H132.2L132.159 118.971L132.162 118.975ZM132.275 117.762H145.738C145.704 116.302 145.475 114.988 145.051 113.847C144.6 112.649 143.917 111.703 143.02 111.039C142.13 110.382 140.97 110.051 139.569 110.051C137.497 110.051 135.8 110.746 134.524 112.112C133.304 113.423 132.545 115.322 132.271 117.766L132.275 117.762Z" fill="white"/>
<path d="M170.731 108.289H168.264L161.477 117.956L154.693 108.289H152.204L160.189 119.409H160.2L151.836 131.189H154.276L161.484 120.907L168.73 131.189H171.238L162.809 119.409L170.731 108.289Z" fill="white"/>
<path d="M171.968 131.561H168.536L161.486 121.556L154.473 131.561H151.109L159.733 119.413L151.47 107.91H154.886L161.475 117.299L168.067 107.91H171.457L163.269 119.405L171.968 131.561ZM168.923 130.81H170.507L162.349 119.405L170.004 108.661H168.461L161.478 118.606L154.499 108.661H152.938L160.382 119.03H160.915L160.506 119.623L152.562 130.81H154.079L161.482 120.25L168.923 130.81Z" fill="white"/>
<path d="M184.116 129.618C183.546 129.719 182.934 129.768 182.269 129.768H182.277C180.884 129.768 179.885 129.348 179.273 128.496C178.658 127.647 178.354 126.397 178.354 124.756V110.051H185.498V108.283H178.354V102.742H176.942L176.206 108.133L172.812 108.786V110.048H176.225V124.88C176.225 126.408 176.443 127.67 176.874 128.661C177.31 129.652 177.956 130.388 178.812 130.872C179.671 131.356 180.745 131.6 182.036 131.6C182.769 131.6 183.433 131.536 184.041 131.42C184.642 131.3 185.171 131.161 185.618 131.011V129.243C185.182 129.397 184.683 129.524 184.113 129.622L184.116 129.618Z" fill="white"/>
<path d="M182.033 131.976C180.685 131.976 179.54 131.713 178.624 131.199C177.701 130.677 176.995 129.874 176.529 128.811C176.075 127.771 175.846 126.45 175.846 124.881V110.424H172.434V108.475L175.869 107.814L176.612 102.367H178.726V107.908H185.87V110.427H178.726V124.757C178.726 126.315 179.011 127.501 179.574 128.275C180.115 129.025 180.989 129.393 182.254 129.393H182.266C182.915 129.393 183.497 129.344 184.049 129.251L184.376 129.194C184.781 129.112 185.156 129.01 185.491 128.894L185.99 128.718V131.285L185.735 131.372C185.265 131.529 184.717 131.672 184.113 131.792C183.463 131.916 182.765 131.98 182.033 131.98V131.976ZM173.184 109.673H176.597V124.881C176.597 126.349 176.803 127.569 177.216 128.511C177.622 129.431 178.204 130.099 178.996 130.546C179.796 130.996 180.82 131.225 182.037 131.225C182.72 131.225 183.369 131.165 183.97 131.053C184.436 130.959 184.864 130.854 185.243 130.737V129.754C184.912 129.847 184.556 129.926 184.177 129.99L183.013 130.189L183.084 130.118C182.825 130.133 182.555 130.144 182.277 130.144H182.258C180.757 130.144 179.649 129.664 178.966 128.714C178.309 127.809 177.975 126.476 177.975 124.757V109.676H185.119V108.659H177.975V103.118H177.265L176.537 108.453L173.184 109.098V109.673Z" fill="white"/>
<path d="M88.2087 107.617C87.0224 106.997 85.7497 106.599 84.432 106.445C82.8891 106.239 81.3348 106.265 79.8069 106.532C78.2902 106.772 76.8598 107.309 75.5647 108.12C74.3558 108.863 73.4173 109.937 72.8504 111.236C72.6064 111.784 72.5013 112.388 72.5463 112.981C72.6101 113.935 73.2709 114.764 74.1719 115.027C75.3507 115.436 76.6684 115.005 77.3779 113.98L77.4643 113.848C77.5018 113.788 77.5356 113.736 77.5694 113.691L77.7646 113.428C77.9185 113.218 78.0649 113.026 78.2264 112.835C78.7632 112.182 79.4765 111.697 80.2799 111.442C81.5225 111.052 82.844 111.04 84.0941 111.42C85.562 111.859 86.4217 112.959 86.5156 114.513C86.5456 115.012 86.5419 115.53 86.5381 116.03V116.277L83.1856 116.48C82.2171 116.536 81.2485 116.6 80.2874 116.657C79.285 116.713 78.2827 116.867 77.3141 117.115C76.1879 117.381 75.1292 117.847 74.1719 118.489C72.7828 119.401 71.8255 120.805 71.4689 122.43C71.2248 123.534 71.2286 124.698 71.4839 125.798C72.017 128.137 73.4248 129.83 75.6698 130.821C77.3629 131.579 79.225 131.816 81.0495 131.5C83.4559 131.106 85.3631 130.006 86.7258 128.249C86.7258 128.418 86.7296 128.58 86.7333 128.737C86.7371 129.049 86.7746 129.361 86.846 129.657C87.0487 130.596 87.7845 131.339 88.7155 131.557C88.9708 131.621 89.2298 131.651 89.4814 131.651C89.6015 131.651 89.7179 131.643 89.8343 131.628C91.0619 131.546 92.0642 130.599 92.2182 129.387C92.2632 129.094 92.282 128.79 92.282 128.49V114.738C92.2857 114.228 92.2557 113.71 92.1806 113.199C91.7902 110.725 90.4612 108.848 88.2125 107.617H88.2087ZM86.5381 122.265C86.4818 123.369 86.0238 124.405 85.2279 125.186C84.3269 126.098 83.1293 126.684 81.8454 126.834C81.0833 126.943 80.3212 126.913 79.5704 126.733C79.0448 126.613 78.5605 126.387 78.1325 126.072C77.4643 125.58 77.0776 124.754 77.1001 123.865C77.1226 122.99 77.5431 122.224 78.2564 121.758C78.8345 121.383 79.4765 121.139 80.1598 121.034C80.7154 120.951 81.3161 120.887 82.0444 120.839C83.2457 120.752 84.447 120.685 85.6484 120.61L86.5569 120.557H86.5606V120.876C86.5644 121.33 86.5644 121.804 86.5419 122.262H86.5381V122.265Z" fill="white"/>
<path d="M20.6481 106.466C20.2539 106.349 19.8522 106.304 19.4768 106.319C18.4632 106.3 17.5809 106.89 17.198 107.798C17.0741 108.069 16.9765 108.339 16.8789 108.62L13.5189 118.516C12.7831 120.698 12.0398 122.875 11.2889 125.075C9.9074 120.99 8.52587 116.906 7.14058 112.825L6.68633 111.459C6.35972 110.49 6.04061 109.529 5.70274 108.568C5.5826 108.215 5.43618 107.866 5.25974 107.539C4.94063 106.927 4.33621 106.503 3.66797 106.398C3.30006 106.33 2.93216 106.312 2.54548 106.345C1.40421 106.477 0.788525 107.032 0.473174 107.479C0.0414448 108.091 -0.101216 108.872 0.0714754 109.627C0.16533 110.07 0.292969 110.513 0.450645 110.948C2.48916 116.29 4.53143 121.625 6.5737 126.963L6.90031 127.823C7.28323 128.822 7.66616 129.824 8.0641 130.845C8.12417 130.973 8.12418 131.119 8.07162 131.243C8.00029 131.427 7.93646 131.618 7.87639 131.81C7.8351 131.937 7.7938 132.065 7.745 132.208C7.51975 132.891 7.17437 133.514 6.72387 134.077C6.30716 134.595 5.7215 134.945 5.07579 135.053C4.85804 135.083 4.6403 135.098 4.41505 135.098C4.25362 135.098 4.08844 135.091 3.92701 135.091C3.62668 135.091 3.31883 135.076 3.00723 135.098C1.79088 135.192 1.29534 135.902 1.08886 136.491C0.766 137.46 1.06633 138.507 1.86973 139.175C2.1175 139.367 2.39531 139.525 2.68438 139.645C3.15365 139.844 3.65671 139.956 4.15601 139.975C4.42256 139.994 4.69286 140.001 4.96691 140.001H4.98569C5.5826 140.001 6.18327 139.964 6.77643 139.877C8.39447 139.656 9.89614 138.868 10.9999 137.663C11.5592 137.043 12.0473 136.36 12.4527 135.628C12.9558 134.727 13.395 133.781 13.7554 132.82C15.809 127.391 17.87 121.963 19.9273 116.542L22.0822 110.839C22.3487 110.216 22.4801 109.555 22.4801 108.872C22.4576 107.753 21.7218 106.785 20.6481 106.462V106.466Z" fill="white"/>
<path d="M45.9398 109.528C45.9435 109.302 45.936 109.073 45.9172 108.863C45.8347 107.605 44.8774 106.562 43.6385 106.37C43.3269 106.314 43.0003 106.306 42.6924 106.344C41.5436 106.445 40.5938 107.268 40.3235 108.383C40.2222 108.777 40.1809 109.186 40.1997 109.576V120.681C40.1997 120.895 40.1997 121.105 40.1846 121.334C40.1584 122.19 39.9744 123.02 39.629 123.808C39.0847 125.073 37.9622 126.034 36.6219 126.372C35.5482 126.665 34.4145 126.658 33.3333 126.354C32.1657 126.065 31.2384 125.209 30.8555 124.06C30.7617 123.782 30.6791 123.497 30.619 123.219C30.4876 122.566 30.4275 121.901 30.4426 121.229V109.723C30.4463 109.449 30.4426 109.167 30.42 108.904C30.3487 107.628 29.3801 106.562 28.1225 106.367C27.8634 106.321 27.5969 106.31 27.3566 106.329C26.129 106.352 25.0854 107.207 24.8151 108.405C24.725 108.803 24.6874 109.205 24.7024 109.595V122.783C24.7024 123.801 24.8526 124.814 25.1454 125.79C26.0277 128.722 27.931 130.584 30.8067 131.332C31.6664 131.549 32.5637 131.658 33.4534 131.658C34.1479 131.658 34.8462 131.591 35.5257 131.455C37.5042 131.106 39.2611 129.961 40.3986 128.321C40.3986 128.572 40.3986 128.828 40.4136 129.068C40.4437 130.232 41.217 131.223 42.3395 131.538C42.7375 131.647 43.1429 131.673 43.5296 131.624C44.5733 131.553 45.4743 130.829 45.7783 129.83C45.906 129.413 45.9585 128.978 45.9435 128.565V109.531L45.9398 109.528Z" fill="white"/>
<path d="M68.5002 106.456C66.9309 106.001 65.6282 106.613 65.0088 108.093C64.96 108.209 64.9187 108.329 64.8774 108.445L64.8361 108.558C64.7047 108.937 64.5733 109.316 64.4457 109.699L59.3851 124.746L57.035 117.726C56.0176 114.685 54.9889 111.648 53.964 108.607C53.8364 108.235 53.675 107.875 53.4798 107.533C53.1081 106.884 52.4436 106.441 51.7115 106.351C51.415 106.306 51.1146 106.302 50.8218 106.332C50.0034 106.407 49.3126 106.771 48.8621 107.345C48.4154 107.92 48.2389 108.689 48.3628 109.515C48.4492 109.988 48.5843 110.461 48.7645 110.897L55.5333 128.718C55.7247 129.27 55.9875 129.791 56.3292 130.276C56.8735 131.038 57.7145 131.515 58.638 131.597C58.8745 131.62 59.1073 131.635 59.3438 131.635C59.5127 131.635 59.6816 131.627 59.8468 131.612C60.9693 131.575 61.9829 130.974 62.5461 130.009C62.7863 129.615 62.9928 129.195 63.1542 128.767C65.448 122.722 67.7418 116.674 70.0206 110.649C70.1145 110.431 70.1858 110.206 70.2421 109.966C70.3134 109.617 70.3623 109.264 70.3698 108.9C70.3773 107.747 69.6039 106.737 68.5002 106.456Z" fill="white"/>
</svg>
