<?xml version="1.0" encoding="UTF-8"?>
<svg id="Layer_1" data-name="Layer 1" xmlns="http://www.w3.org/2000/svg" viewBox="0 0 781.71 228.94">
  <defs>
    <style>
      .cls-1 {
        fill: #f04e27;
      }

      .cls-2 {
        fill: #fff;
      }

      .cls-3 {
        fill: #101928;
      }

      .cls-4 {
        fill: #ffca2d;
      }
    </style>
  </defs>
  <g>
    <g>
      <g>
        <path class="cls-3" d="M570.69,115.2c0,2.02.02,4.18.08,6.46.06,2.28.11,4.51.17,6.67.06,2.17.11,4.07.15,5.72h-.28l-48.32-72.33h-5.95v82.04h5.5v-53.25c0-2.31-.02-4.57-.09-6.76-.06-2.19-.12-4.32-.17-6.4-.05-2.07-.12-4.12-.19-6.15h.28l48.48,72.56h5.89V61.71h-5.55v53.48h0Z"/>
        <path class="cls-3" d="M577.24,144.76h-7.42l-47.12-70.53c.03,1.03.06,2.06.09,3.1.05,1.92.1,3.89.16,5.91v.49c.08,1.94.1,4.1.1,6.79v54.25h-7.5V60.72h7.48l46.99,70.34c-.02-.85-.05-1.75-.07-2.7-.04-1.28-.07-2.59-.1-3.92l-.07-2.75c-.05-2.04-.08-4.16-.08-6.49v-54.49h7.55v84.05ZM570.88,142.76h4.36V62.71h-3.55v52.49c0,2.31.03,4.41.08,6.43l.07,2.75c.03,1.33.07,2.63.1,3.91.06,2.17.11,4.07.15,5.72l.02,1.02h-1.84l-48.32-72.33h-4.42v80.04h3.5v-52.25c0-2.67-.03-4.8-.09-6.73v-.49c-.07-2.02-.12-3.99-.17-5.92-.05-2.07-.12-4.11-.19-6.14l-.04-1.03h1.85l48.48,72.56Z"/>
      </g>
      <g>
        <path class="cls-3" d="M634.08,85.25c-3.46-2.43-7.78-3.65-12.99-3.65h.01c-5.77-.01-10.62,1.41-14.57,4.23-3.94,2.82-6.94,6.67-8.98,11.53-2.05,4.87-3.06,10.19-3.06,16.45s1.06,11.71,3.17,16.39,5.26,8.29,9.43,10.86,9.35,3.84,15.52,3.84c3.89,0,7.34-.31,10.33-.92,2.99-.62,5.99-1.59,8.98-2.94v-5.21c-3.41,1.49-6.51,2.55-9.29,3.17-2.78.61-6.06.93-9.84.93-7.22,0-12.77-2.24-16.64-6.74-3.87-4.48-5.81-10.91-5.81-19.3h44.05v-4.1c0-5.46-.85-10.3-2.55-14.53-1.71-4.23-4.29-7.56-7.75-9.99v-.02ZM600.49,109.03c.64-7.29,2.76-12.88,6.37-16.75,3.61-3.87,8.34-5.81,14.17-5.81,3.96,0,7.23.94,9.79,2.83,2.55,1.89,4.47,4.53,5.75,7.94,1.26,3.41,1.9,7.34,1.9,11.78h-37.99.01Z"/>
        <path class="cls-3" d="M622.61,145.9c-6.35,0-11.75-1.34-16.04-3.99-4.34-2.67-7.64-6.48-9.82-11.3-2.16-4.79-3.26-10.45-3.26-16.8s1.03-11.82,3.14-16.84c2.1-5.01,5.24-9.04,9.32-11.96,4.11-2.93,9.18-4.42,15.09-4.42h.07c5.38,0,9.94,1.29,13.55,3.83l.23.17c3.49,2.52,6.14,5.97,7.89,10.28,1.74,4.33,2.62,9.35,2.62,14.91v5.1h-44.04c.15,7.61,2.02,13.55,5.56,17.65,3.65,4.24,8.99,6.39,15.88,6.39,3.64,0,6.88-.31,9.62-.91,2.69-.6,5.76-1.65,9.1-3.11l1.4-.61v7.38l-.59.27c-3,1.35-6.09,2.37-9.19,3.01-3.06.62-6.61.94-10.53.94ZM621.04,82.6c-5.48,0-10.17,1.36-13.92,4.04-3.77,2.7-6.68,6.44-8.64,11.1-2.01,4.77-2.98,10.02-2.98,16.06s1.04,11.44,3.08,15.98c2.01,4.45,5.05,7.96,9.04,10.42,3.98,2.45,9.02,3.69,15,3.69,3.79,0,7.2-.3,10.13-.9,2.75-.57,5.5-1.45,8.18-2.61v-3.05c-2.92,1.21-5.63,2.09-8.07,2.63-2.89.63-6.27.96-10.06.96-7.5,0-13.35-2.38-17.4-7.09-4.02-4.65-6.05-11.36-6.05-19.95v-1h44.05v-3.1c0-5.3-.83-10.07-2.48-14.16-1.63-4.03-4.12-7.24-7.4-9.54l-.22-.17c-3.24-2.2-7.35-3.32-12.2-3.32h-.05ZM601.3,111.25l-3.23-3.23h1.52c.75-7.05,2.96-12.57,6.54-16.42,3.79-4.07,8.81-6.13,14.9-6.13,4.17,0,7.66,1.02,10.38,3.02,2.71,2.01,4.75,4.83,6.09,8.39,1.3,3.53,1.96,7.61,1.96,12.13v1h-38.06l-.11,1.23ZM601.6,108.02h35.86c-.09-3.89-.7-7.39-1.83-10.43-1.2-3.19-3.02-5.71-5.41-7.48-2.37-1.75-5.46-2.63-9.19-2.63-5.52,0-10.04,1.85-13.44,5.49-3.25,3.49-5.27,8.55-6,15.06Z"/>
      </g>
      <g>
        <polygon class="cls-3" points="703.99 82.78 697.42 82.78 679.34 108.53 661.27 82.78 654.64 82.78 675.91 112.4 675.94 112.4 653.66 143.78 660.16 143.78 679.36 116.39 698.66 143.78 705.34 143.78 682.89 112.4 703.99 82.78"/>
        <path class="cls-3" d="M707.29,144.78h-9.14l-18.78-26.65-18.68,26.65h-8.96l22.97-32.36-22.01-30.64h9.1l17.55,25.01,17.56-25.01h9.03l-21.81,30.62,23.17,32.38ZM699.18,142.78h4.22l-21.73-30.38,20.39-28.62h-4.11l-18.6,26.49-18.59-26.49h-4.16l19.83,27.62h1.42l-1.09,1.58-21.16,29.8h4.04l19.72-28.13,19.82,28.13Z"/>
      </g>
      <g>
        <path class="cls-3" d="M739.7,139.61c-1.52.27-3.15.4-4.92.4h.02c-3.71,0-6.37-1.12-8-3.39-1.64-2.26-2.45-5.59-2.45-9.96v-39.17h19.03v-4.71h-19.03v-14.76h-3.76l-1.96,14.36-9.04,1.74v3.36h9.09v39.51c0,4.07.58,7.43,1.73,10.07,1.16,2.64,2.88,4.6,5.16,5.89,2.29,1.29,5.15,1.94,8.59,1.94,1.95,0,3.72-.17,5.34-.48,1.6-.32,3.01-.69,4.2-1.09v-4.71c-1.16.41-2.49.75-4.01,1.01h0Z"/>
        <path class="cls-3" d="M734.16,145.89c-3.59,0-6.64-.7-9.08-2.07-2.46-1.39-4.34-3.53-5.58-6.36-1.21-2.77-1.82-6.29-1.82-10.47v-38.51h-9.09v-5.19l9.15-1.76,1.98-14.51h5.63v14.76h19.03v6.71h-19.03v38.17c0,4.15.76,7.31,2.26,9.37,1.44,2,3.77,2.98,7.14,2.98h.03c1.73,0,3.28-.13,4.75-.38l.87-.15c1.08-.22,2.08-.49,2.97-.8l1.33-.47v6.84l-.68.23c-1.25.42-2.71.8-4.32,1.12-1.73.33-3.59.5-5.54.5ZM710.59,86.48h9.09v40.51c0,3.91.55,7.16,1.65,9.67,1.08,2.45,2.63,4.23,4.74,5.42,2.13,1.2,4.86,1.81,8.1,1.81,1.82,0,3.55-.16,5.15-.46,1.24-.25,2.38-.53,3.39-.84v-2.62c-.88.25-1.83.46-2.84.63l-3.1.53.19-.19c-.69.04-1.41.07-2.15.07h-.05c-4,0-6.95-1.28-8.77-3.81-1.75-2.41-2.64-5.96-2.64-10.54v-40.17h19.03v-2.71h-19.03v-14.76h-1.89l-1.94,14.21-8.93,1.72v1.53Z"/>
      </g>
    </g>
    <g>
      <path class="cls-3" d="M484.2,81c-3.16-1.65-6.55-2.71-10.06-3.12-4.11-.55-8.25-.48-12.32.23-4.04.64-7.85,2.07-11.3,4.23-3.22,1.98-5.72,4.84-7.23,8.3-.65,1.46-.93,3.07-.81,4.65.17,2.54,1.93,4.75,4.33,5.45,3.14,1.09,6.65-.06,8.54-2.79l.23-.35c.1-.16.19-.3.28-.42l.52-.7c.41-.56.8-1.07,1.23-1.58,1.43-1.74,3.33-3.03,5.47-3.71,3.31-1.04,6.83-1.07,10.16-.06,3.91,1.17,6.2,4.1,6.45,8.24.08,1.33.07,2.71.06,4.04v.66l-8.93.54c-2.58.15-5.16.32-7.72.47-2.67.15-5.34.56-7.92,1.22-3,.71-5.82,1.95-8.37,3.66-3.7,2.43-6.25,6.17-7.2,10.5-.65,2.94-.64,6.04.04,8.97,1.42,6.23,5.17,10.74,11.15,13.38,4.51,2.02,9.47,2.65,14.33,1.81,6.41-1.05,11.49-3.98,15.12-8.66,0,.45.01.88.02,1.3.01.83.11,1.66.3,2.45.54,2.5,2.5,4.48,4.98,5.06.68.17,1.37.25,2.04.25.32,0,.63-.02.94-.06,3.27-.22,5.94-2.74,6.35-5.97.12-.78.17-1.59.17-2.39v-36.63c.01-1.36-.07-2.74-.27-4.1-1.04-6.59-4.58-11.59-10.57-14.87h-.01ZM479.75,120.02c-.15,2.94-1.37,5.7-3.49,7.78-2.4,2.43-5.59,3.99-9.01,4.39-2.03.29-4.06.21-6.06-.27-1.4-.32-2.69-.92-3.83-1.76-1.78-1.31-2.81-3.51-2.75-5.88.06-2.33,1.18-4.37,3.08-5.61,1.54-1,3.25-1.65,5.07-1.93,1.48-.22,3.08-.39,5.02-.52,3.2-.23,6.4-.41,9.6-.61l2.42-.14h.01v.85c.01,1.21.01,2.47-.05,3.69h-.01Z"/>
      <path class="cls-3" d="M304.23,77.93c-1.05-.31-2.12-.43-3.12-.39-2.7-.05-5.05,1.52-6.07,3.94-.33.72-.59,1.44-.85,2.19l-8.95,26.36c-1.96,5.81-3.94,11.61-5.94,17.47-3.68-10.88-7.36-21.76-11.05-32.63l-1.21-3.64c-.87-2.58-1.72-5.14-2.62-7.7-.32-.94-.71-1.87-1.18-2.74-.85-1.63-2.46-2.76-4.24-3.04-.98-.18-1.96-.23-2.99-.14-3.04.35-4.68,1.83-5.52,3.02-1.15,1.63-1.53,3.71-1.07,5.72.25,1.18.59,2.36,1.01,3.52,5.43,14.23,10.87,28.44,16.31,42.66l.87,2.29c1.02,2.66,2.04,5.33,3.1,8.05.16.34.16.73.02,1.06-.19.49-.36,1-.52,1.51-.11.34-.22.68-.35,1.06-.6,1.82-1.52,3.48-2.72,4.98-1.11,1.38-2.67,2.31-4.39,2.6-.58.08-1.16.12-1.76.12-.43,0-.87-.02-1.3-.02-.8,0-1.62-.04-2.45.02-3.24.25-4.56,2.14-5.11,3.71-.86,2.58-.06,5.37,2.08,7.15.66.51,1.4.93,2.17,1.25,1.25.53,2.59.83,3.92.88.71.05,1.43.07,2.16.07h.05c1.59,0,3.19-.1,4.77-.33,4.31-.59,8.31-2.69,11.25-5.9,1.49-1.65,2.79-3.47,3.87-5.42,1.34-2.4,2.51-4.92,3.47-7.48,5.47-14.46,10.96-28.92,16.44-43.36l5.74-15.19c.71-1.66,1.06-3.42,1.06-5.24-.06-2.98-2.02-5.56-4.88-6.42h0Z"/>
      <path class="cls-3" d="M371.61,86.09c.01-.6-.01-1.21-.06-1.77-.22-3.35-2.77-6.13-6.07-6.64-.83-.15-1.7-.17-2.52-.07-3.06.27-5.59,2.46-6.31,5.43-.27,1.05-.38,2.14-.33,3.18v29.58c0,.57,0,1.13-.04,1.74-.07,2.28-.56,4.49-1.48,6.59-1.45,3.37-4.44,5.93-8.01,6.83-2.86.78-5.88.76-8.76-.05-3.11-.77-5.58-3.05-6.6-6.11-.25-.74-.47-1.5-.63-2.24-.35-1.74-.51-3.51-.47-5.3v-30.65c.01-.73,0-1.48-.06-2.18-.19-3.4-2.77-6.24-6.12-6.76-.69-.12-1.4-.15-2.04-.1-3.27.06-6.05,2.34-6.77,5.53-.24,1.06-.34,2.13-.3,3.17v35.13c0,2.71.4,5.41,1.18,8.01,2.35,7.81,7.42,12.77,15.08,14.76,2.29.58,4.68.87,7.05.87h0c1.85,0,3.71-.18,5.52-.54,5.27-.93,9.95-3.98,12.98-8.35,0,.67,0,1.35.04,1.99.08,3.1,2.14,5.74,5.13,6.58,1.06.29,2.14.36,3.17.23,2.78-.19,5.18-2.12,5.99-4.78.34-1.11.48-2.27.44-3.37v-50.7h0Z"/>
      <path class="cls-3" d="M431.7,77.91c-4.18-1.21-7.65.42-9.3,4.36-.13.31-.24.63-.35.94l-.11.3c-.35,1.01-.7,2.02-1.04,3.04l-13.48,40.08-6.26-18.7c-2.71-8.1-5.45-16.19-8.18-24.29-.34-.99-.77-1.95-1.29-2.86-.99-1.73-2.76-2.91-4.71-3.15-.79-.12-1.59-.13-2.37-.05-2.18.2-4.02,1.17-5.22,2.7-1.19,1.53-1.66,3.58-1.33,5.78.23,1.26.59,2.52,1.07,3.68l18.03,47.47c.51,1.47,1.21,2.86,2.12,4.15,1.45,2.03,3.69,3.3,6.15,3.52.63.06,1.25.1,1.88.1h0c.45,0,.9-.02,1.34-.06,2.99-.1,5.69-1.7,7.19-4.27.64-1.05,1.19-2.17,1.62-3.31,6.11-16.1,12.22-32.21,18.29-48.26.25-.58.44-1.18.59-1.82.19-.93.32-1.87.34-2.84.02-3.07-2.04-5.76-4.98-6.51h0Z"/>
    </g>
  </g>
  <g>
    <circle class="cls-1" cx="126.49" cy="114.48" r="87.93"/>
    <g>
      <circle class="cls-4" cx="91.78" cy="114.48" r="21.51"/>
      <path class="cls-2" d="M181.43,108.18c-24.05-16.87-48.1-33.75-72.15-50.63-4.83-3.39-11.47.07-11.47,5.97v18.1c16.06,2.6,27.97,16.6,27.97,32.86s-11.92,30.27-27.97,32.86v18.1c0,5.9,6.64,9.36,11.47,5.97,24.05-16.87,48.1-33.75,72.15-50.63,4.37-3.06,4.37-9.53,0-12.6Z"/>
    </g>
  </g>
</svg>